<svg width="220" height="40" viewBox="0 0 220 40" fill="none" xmlns="http://www.w3.org/2000/svg">
<path d="M20 0L24.4903 13.8197H39.0211L27.2654 22.3607L31.7557 36.1803L20 27.6393L8.2443 36.1803L12.7346 22.3607L0.97887 13.8197H15.5097L20 0Z" fill="#FFE100"/>
<path d="M65 0L69.4903 13.8197H84.0211L72.2654 22.3607L76.7557 36.1803L65 27.6393L53.2443 36.1803L57.7346 22.3607L45.9789 13.8197H60.5097L65 0Z" fill="white"/>
<path d="M110 0L114.49 13.8197H129.021L117.265 22.3607L121.756 36.1803L110 27.6393L98.2443 36.1803L102.735 22.3607L90.9789 13.8197H105.51L110 0Z" fill="white"/>
<path d="M155 0L159.49 13.8197H174.021L162.265 22.3607L166.756 36.1803L155 27.6393L143.244 36.1803L147.735 22.3607L135.979 13.8197H150.51L155 0Z" fill="white"/>
<path d="M200 0L204.49 13.8197H219.021L207.265 22.3607L211.756 36.1803L200 27.6393L188.244 36.1803L192.735 22.3607L180.979 13.8197H195.51L200 0Z" fill="white"/>
</svg>
