<svg width="73" height="70" viewBox="0 0 73 70" fill="none" xmlns="http://www.w3.org/2000/svg">
<circle cx="35" cy="35" r="35" fill="#E99C70"/>
<path d="M33.1733 34.3636C33.1733 37.6619 32.5778 40.5123 31.3867 42.9148C30.1957 45.3172 28.5618 47.17 26.4851 48.473C24.4084 49.776 22.0365 50.4276 19.3693 50.4276C16.7022 50.4276 14.3303 49.776 12.2536 48.473C10.1768 47.17 8.54297 45.3172 7.35192 42.9148C6.16087 40.5123 5.56534 37.6619 5.56534 34.3636C5.56534 31.0653 6.16087 28.215 7.35192 25.8125C8.54297 23.41 10.1768 21.5573 12.2536 20.2543C14.3303 18.9512 16.7022 18.2997 19.3693 18.2997C22.0365 18.2997 24.4084 18.9512 26.4851 20.2543C28.5618 21.5573 30.1957 23.41 31.3867 25.8125C32.5778 28.215 33.1733 31.0653 33.1733 34.3636ZM29.5085 34.3636C29.5085 31.6558 29.0555 29.3704 28.1495 27.5075C27.2537 25.6445 26.0372 24.2346 24.5 23.2777C22.973 22.3208 21.2628 21.8423 19.3693 21.8423C17.4759 21.8423 15.7605 22.3208 14.2234 23.2777C12.6964 24.2346 11.4799 25.6445 10.5739 27.5075C9.67803 29.3704 9.23011 31.6558 9.23011 34.3636C9.23011 37.0715 9.67803 39.3569 10.5739 41.2198C11.4799 43.0827 12.6964 44.4927 14.2234 45.4496C15.7605 46.4065 17.4759 46.8849 19.3693 46.8849C21.2628 46.8849 22.973 46.4065 24.5 45.4496C26.0372 44.4927 27.2537 43.0827 28.1495 41.2198C29.0555 39.3569 29.5085 37.0715 29.5085 34.3636ZM64.7056 28.5H60.9187C60.6947 27.4107 60.3028 26.4538 59.7429 25.6293C59.1932 24.8047 58.5213 24.1125 57.7273 23.5526C56.9434 22.9825 56.073 22.5549 55.1161 22.2699C54.1592 21.9848 53.1616 21.8423 52.1232 21.8423C50.2298 21.8423 48.5144 22.3208 46.9773 23.2777C45.4503 24.2346 44.2338 25.6445 43.3278 27.5075C42.4319 29.3704 41.984 31.6558 41.984 34.3636C41.984 37.0715 42.4319 39.3569 43.3278 41.2198C44.2338 43.0827 45.4503 44.4927 46.9773 45.4496C48.5144 46.4065 50.2298 46.8849 52.1232 46.8849C53.1616 46.8849 54.1592 46.7424 55.1161 46.4574C56.073 46.1723 56.9434 45.7499 57.7273 45.19C58.5213 44.6199 59.1932 43.9226 59.7429 43.098C60.3028 42.2633 60.6947 41.3063 60.9187 40.2273H64.7056C64.4206 41.8255 63.9014 43.2558 63.1481 44.5181C62.3948 45.7804 61.4582 46.8544 60.3384 47.7401C59.2186 48.6155 57.9614 49.2823 56.5668 49.7404C55.1823 50.1985 53.7011 50.4276 52.1232 50.4276C49.4561 50.4276 47.0842 49.776 45.0075 48.473C42.9308 47.17 41.2969 45.3172 40.1058 42.9148C38.9148 40.5123 38.3192 37.6619 38.3192 34.3636C38.3192 31.0653 38.9148 28.215 40.1058 25.8125C41.2969 23.41 42.9308 21.5573 45.0075 20.2543C47.0842 18.9512 49.4561 18.2997 52.1232 18.2997C53.7011 18.2997 55.1823 18.5288 56.5668 18.9869C57.9614 19.445 59.2186 20.1168 60.3384 21.0025C61.4582 21.878 62.3948 22.9469 63.1481 24.2092C63.9014 25.4613 64.4206 26.8916 64.7056 28.5Z" fill="black"/>
</svg>
