<svg width="70" height="70" viewBox="0 0 70 70" fill="none" xmlns="http://www.w3.org/2000/svg">
<circle cx="35" cy="35" r="35" fill="#E99C70"/>
<path d="M10.0696 48H6.09943L17.5824 16.7273H21.4915L32.9744 48H29.0043L19.6591 21.6747H19.4148L10.0696 48ZM11.5355 35.7841H27.5384V39.1435H11.5355V35.7841ZM35.158 48V44.5185H36.0742C37.3772 44.5185 38.3902 44.1011 39.1129 43.2663C39.8357 42.4316 40.3549 41.0827 40.6705 39.2198C40.9962 37.3569 41.2151 34.8883 41.3271 31.8139L41.8768 16.7273H60.9336V48H57.1467V20.0866H45.4805L44.9918 32.5469C44.8697 35.8248 44.5694 38.6141 44.0909 40.9148C43.6125 43.2154 42.7726 44.9715 41.5714 46.1829C40.3701 47.3943 38.6192 48 36.3185 48H35.158Z" fill="black"/>
</svg>
