<svg width="75" height="70" viewBox="0 0 75 70" fill="none" xmlns="http://www.w3.org/2000/svg">
<circle cx="35" cy="35" r="35" fill="#E99C70"/>
<path d="M8.78693 49V17.7273H27.6605V21.0866H12.5739V30.8594H20.5142C22.7538 30.8594 24.6422 31.2259 26.1793 31.9588C27.7267 32.6918 28.8974 33.725 29.6914 35.0586C30.4956 36.3922 30.8977 37.965 30.8977 39.777C30.8977 41.589 30.4956 43.1873 29.6914 44.5717C28.8974 45.9562 27.7267 47.0404 26.1793 47.8242C24.6422 48.6081 22.7538 49 20.5142 49H8.78693ZM12.5739 45.7017H20.5142C21.9394 45.7017 23.1457 45.4167 24.1332 44.8466C25.1308 44.2663 25.8841 43.5232 26.3931 42.6172C26.9123 41.701 27.1719 40.7339 27.1719 39.7159C27.1719 38.2195 26.5967 36.9317 25.4464 35.8526C24.296 34.7634 22.652 34.2188 20.5142 34.2188H12.5739V45.7017ZM37.1317 49V17.7273H40.9186V31.6534H57.5933V17.7273H61.3802V49H57.5933V35.0128H40.9186V49H37.1317Z" fill="black"/>
</svg>
